<svg width="29" height="30" viewBox="0 0 29 30" fill="none" xmlns="http://www.w3.org/2000/svg">
<g clip-path="url(#clip0_350_6)">
<path d="M27.7547 9.65043C26.9973 7.88552 25.9169 6.31384 24.5435 4.97933C24.3662 4.80702 24.0857 4.8139 23.9167 4.99484C23.7479 5.17566 23.7547 5.46184 23.932 5.63404C26.5875 8.21446 28.05 11.6952 28.05 15.4348C28.05 22.8978 22.0975 28.9693 14.7809 28.9693C7.4642 28.9693 1.5118 22.8978 1.5118 15.4348C1.5118 7.97193 7.46431 1.90038 14.7809 1.90038C17.4537 1.90038 20.0301 2.70726 22.2316 4.23365C22.434 4.37403 22.7097 4.32039 22.8474 4.11396C22.985 3.90742 22.9324 3.6262 22.73 3.48582C20.3809 1.85706 17.6322 0.996094 14.7809 0.996094C10.9998 0.996094 7.44502 2.49795 4.77136 5.22513C2.09771 7.95225 0.625244 11.5781 0.625244 15.4348C0.625244 19.2916 2.09771 22.9174 4.77136 25.6446C7.44502 28.3717 10.9998 29.8736 14.7809 29.8736C18.562 29.8736 22.1168 28.3717 24.7905 25.6446C27.4641 22.9174 28.9366 19.2916 28.9366 15.4348C28.9366 13.424 28.5389 11.4778 27.7547 9.65043Z" fill="#3D2C26"/>
<path d="M21.2136 7.11903L12.6883 11.167C12.4664 11.2724 12.3702 11.5414 12.4736 11.7678C12.5769 11.9942 12.8406 12.0924 13.0625 11.9869L18.3214 9.4898L15.7647 11.601L9.89747 16.4456L6.68833 15.0135L11.1853 12.8782C11.4073 12.7728 11.5034 12.5038 11.4001 12.2774C11.2968 12.051 11.033 11.9529 10.8112 12.0583L5.9706 14.3568C5.71325 14.479 5.55079 14.7462 5.55732 15.0356C5.56368 15.3187 5.73144 15.5735 5.98575 15.687L9.56901 17.286L10.6185 23.7086C10.6831 24.1057 11.2102 24.2188 11.4265 23.882L14.4034 19.2475L20.0331 21.9272C20.4841 22.1421 21.0209 21.8137 21.05 21.3087L21.8431 7.55529C21.844 7.54255 21.8439 7.52946 21.8436 7.51666C21.8348 7.19658 21.4977 6.98502 21.2136 7.11903ZM11.1324 21.3536L10.4465 17.1557L17.4341 11.3859L12.0861 17.5021C12.038 17.5572 12.0022 17.6264 11.9857 17.6983L11.1324 21.3536ZM12.0741 21.2238L12.7222 18.4473L13.5917 18.8612L12.0741 21.2238ZM14.0826 18.0969L13.1444 17.6504L17.7598 12.372L17.0923 13.4114L14.0826 18.0969ZM20.1798 20.9992L14.8943 18.4833L20.8605 9.19494L20.1798 20.9992Z" fill="#3D2C26"/>
</g>
<defs>
<clipPath id="clip0_350_6">
<rect width="28.3113" height="28.8775" fill="white" transform="translate(0.625244 0.996094)"/>
</clipPath>
</defs>
</svg>
