<svg width="31" height="30" viewBox="0 0 31 30" fill="none" xmlns="http://www.w3.org/2000/svg">
<g clip-path="url(#clip0_350_13)">
<path d="M15.4565 0C7.38161 0 0.812744 6.70023 0.812744 14.9366C0.812744 17.7465 1.57816 20.4741 3.03015 22.8427C2.45172 24.9097 1.40694 28.8197 1.39568 28.8605C1.34161 29.0627 1.39962 29.2787 1.54775 29.424C1.69588 29.5694 1.9099 29.6211 2.10478 29.5602L7.90936 27.7391C10.1831 29.1362 12.7869 29.8733 15.4565 29.8733C23.5315 29.8733 30.1003 23.173 30.1003 14.9366C30.1003 6.70023 23.5315 0 15.4565 0ZM15.4565 28.7243C12.9113 28.7243 10.432 27.9987 8.28615 26.6269C8.19547 26.5688 8.09128 26.5395 7.98708 26.5395C7.93132 26.5395 7.87556 26.5482 7.82149 26.5648L2.75305 28.1561C3.12534 26.7699 3.79445 24.2904 4.18251 22.9111C4.22757 22.7514 4.20222 22.579 4.11379 22.4394C2.69109 20.2064 1.93919 17.612 1.93919 14.9366C1.93919 7.33447 8.00341 1.14897 15.4565 1.14897C22.9097 1.14897 28.9739 7.33447 28.9739 14.9366C28.9739 22.5388 22.9097 28.7243 15.4565 28.7243Z" fill="#3D2C26"/>
<path d="M25.023 18.4552C23.9833 17.8664 23.0979 17.2758 22.4519 16.8449C21.9585 16.5163 21.602 16.2791 21.3406 16.1452C20.6101 15.7735 20.0565 16.0361 19.8458 16.2532C19.8194 16.2802 19.7957 16.3095 19.7754 16.3405C19.0168 17.5016 18.0261 18.6121 17.736 18.6718C17.4009 18.6184 15.8323 17.709 14.2733 16.3848C12.6816 15.0319 11.6802 13.7364 11.5332 12.854C12.5544 11.782 12.9221 11.1076 12.9221 10.34C12.9221 9.54897 11.1131 6.24625 10.7858 5.91247C10.4575 5.57812 9.71796 5.52584 8.58757 5.75564C8.47887 5.77804 8.37861 5.83262 8.29976 5.91247C8.1629 6.05207 4.96041 9.38237 6.48224 13.4187C8.15276 17.8486 12.4406 22.9977 17.9072 23.8341C18.5285 23.9289 19.1108 23.976 19.656 23.976C22.872 23.976 24.7701 22.3255 25.3046 19.0515C25.3446 18.812 25.2314 18.573 25.023 18.4552ZM18.0745 22.6978C12.2936 21.8137 8.65234 15.9717 7.53378 13.0062C6.42423 10.0649 8.47042 7.44233 8.98408 6.84946C9.40199 6.77707 9.84187 6.74663 10.0255 6.77593C10.409 7.31996 11.7371 9.8793 11.7957 10.34C11.7957 10.6416 11.6994 11.0616 10.5527 12.2318C10.4468 12.3393 10.3876 12.4852 10.3876 12.638C10.3876 15.646 16.6079 19.8191 17.7095 19.8191C18.6676 19.8191 19.9168 18.1766 20.6282 17.1063C20.6693 17.1081 20.7385 17.1224 20.8371 17.173C21.0399 17.277 21.3913 17.5108 21.8357 17.8072C22.4226 18.1984 23.2021 18.7178 24.1224 19.2561C23.7045 21.307 22.5364 23.3815 18.0745 22.6978Z" fill="#3D2C26"/>
</g>
<defs>
<clipPath id="clip0_350_13">
<rect width="29.2876" height="29.8733" fill="white" transform="translate(0.812744)"/>
</clipPath>
</defs>
</svg>
